<svg width="40" height="40" viewBox="0 0 40 40" fill="none" xmlns="http://www.w3.org/2000/svg">
<g clip-path="url(#clip0_102_5547)">
<path d="M29.7324 26.0957L30.0257 26.3907L30.3224 26.0957C30.6706 25.7475 31.084 25.4713 31.539 25.2828C31.994 25.0944 32.4816 24.9974 32.9741 24.9974C33.4665 24.9974 33.9542 25.0944 34.4091 25.2828C34.8641 25.4713 35.2775 25.7475 35.6257 26.0957C35.974 26.4439 36.2502 26.8573 36.4386 27.3123C36.6271 27.7673 36.7241 28.2549 36.7241 28.7474C36.7241 29.2399 36.6271 29.7275 36.4386 30.1825C36.2502 30.6374 35.974 31.0508 35.6257 31.3991L30.0257 36.9974L24.4291 31.3991C23.7258 30.6958 23.3307 29.742 23.3307 28.7474C23.3307 27.7528 23.7258 26.799 24.4291 26.0957C25.1323 25.3925 26.0862 24.9974 27.0807 24.9974C28.0753 24.9974 29.0291 25.3925 29.7324 26.0957ZM19.9974 23.3307V26.6641C17.3452 26.6641 14.8017 27.7176 12.9263 29.593C11.051 31.4684 9.9974 34.0119 9.9974 36.6641H6.66406C6.6641 33.2 8.01229 29.872 10.4232 27.3846C12.8341 24.8971 16.1184 23.4456 19.5807 23.3374L19.9974 23.3307ZM19.9974 1.66406C25.5224 1.66406 29.9974 6.13906 29.9974 11.6641C29.9983 14.2516 28.9959 16.7387 27.2009 18.6024C25.4059 20.4661 22.9582 21.5612 20.3724 21.6574L19.9974 21.6641C14.4724 21.6641 9.9974 17.1891 9.9974 11.6641C9.99647 9.07651 10.9989 6.58941 12.7939 4.72571C14.5889 2.86201 17.0366 1.76693 19.6224 1.67073L19.9974 1.66406ZM19.9974 4.9974C16.3141 4.9974 13.3307 7.98073 13.3307 11.6641C13.3307 15.3474 16.3141 18.3307 19.9974 18.3307C23.6807 18.3307 26.6641 15.3474 26.6641 11.6641C26.6641 7.98073 23.6807 4.9974 19.9974 4.9974Z" fill="#F4683F"/>
</g>
<defs>
<clipPath id="clip0_102_5547">
<rect width="40" height="40" fill="white"/>
</clipPath>
</defs>
</svg>
