<svg width="40" height="40" viewBox="0 0 40 40" fill="none" xmlns="http://www.w3.org/2000/svg">
<g clip-path="url(#clip0_102_5557)">
<path d="M33.3333 3.33594C34.2533 3.33594 35 4.0826 35 5.0026V11.2643L31.6667 14.5976V6.66927H8.33333V33.3359H31.6667V28.7393L35 25.4059V35.0026C35 35.9226 34.2533 36.6693 33.3333 36.6693H6.66667C5.74667 36.6693 5 35.9226 5 35.0026V5.0026C5 4.0826 5.74667 3.33594 6.66667 3.33594H33.3333ZM36.2967 14.6826L38.6533 17.0393L25.69 30.0026L23.33 29.9993L23.3333 27.6459L36.2967 14.6826ZM21.6667 20.0026V23.3359H13.3333V20.0026H21.6667ZM26.6667 13.3359V16.6693H13.3333V13.3359H26.6667Z" fill="#F4683F"/>
</g>
<defs>
<clipPath id="clip0_102_5557">
<rect width="40" height="40" fill="white"/>
</clipPath>
</defs>
</svg>
