<svg width="40" height="40" viewBox="0 0 40 40" fill="none" xmlns="http://www.w3.org/2000/svg">
<g clip-path="url(#clip0_102_5552)">
<path d="M36.6693 28.3393C36.6685 30.6185 35.8894 32.8292 34.461 34.6053C33.0325 36.3814 31.0404 37.6164 28.8143 38.1059L27.7509 34.9159C28.7247 34.7556 29.6507 34.3812 30.4623 33.8198C31.2738 33.2583 31.9508 32.5239 32.4443 31.6693H28.3359C27.4519 31.6693 26.604 31.3181 25.9789 30.693C25.3538 30.0678 25.0026 29.22 25.0026 28.3359V21.6693C25.0026 20.7852 25.3538 19.9374 25.9789 19.3122C26.604 18.6871 27.4519 18.3359 28.3359 18.3359H33.2326C32.8259 15.1141 31.2575 12.1514 28.8216 10.0037C26.3858 7.85607 23.25 6.67106 20.0026 6.67106C16.7552 6.67106 13.6194 7.85607 11.1836 10.0037C8.74774 12.1514 7.17932 15.1141 6.7726 18.3359H11.6693C12.5533 18.3359 13.4012 18.6871 14.0263 19.3122C14.6514 19.9374 15.0026 20.7852 15.0026 21.6693V28.3359C15.0026 29.22 14.6514 30.0678 14.0263 30.693C13.4012 31.3181 12.5533 31.6693 11.6693 31.6693H6.66927C5.78522 31.6693 4.93737 31.3181 4.31225 30.693C3.68713 30.0678 3.33594 29.22 3.33594 28.3359V20.0026C3.33594 10.7976 10.7976 3.33594 20.0026 3.33594C29.2076 3.33594 36.6693 10.7976 36.6693 20.0026V28.3393ZM33.3359 28.3359V21.6693H28.3359V28.3359H33.3359ZM6.66927 21.6693V28.3359H11.6693V21.6693H6.66927Z" fill="#F4683F"/>
</g>
<defs>
<clipPath id="clip0_102_5552">
<rect width="40" height="40" fill="white"/>
</clipPath>
</defs>
</svg>
