<svg width="29" height="30" viewBox="0 0 29 30" fill="none" xmlns="http://www.w3.org/2000/svg">
<g clip-path="url(#clip0_102_4302)">
<path d="M3.625 6.25C3.625 5.55964 4.16599 5 4.83333 5H24.1667C24.834 5 25.375 5.55964 25.375 6.25C25.375 6.94036 24.834 7.5 24.1667 7.5H4.83333C4.16599 7.5 3.625 6.94036 3.625 6.25ZM3.625 15C3.625 14.3096 4.16599 13.75 4.83333 13.75H24.1667C24.834 13.75 25.375 14.3096 25.375 15C25.375 15.6904 24.834 16.25 24.1667 16.25H4.83333C4.16599 16.25 3.625 15.6904 3.625 15ZM3.625 23.75C3.625 23.0596 4.16599 22.5 4.83333 22.5H24.1667C24.834 22.5 25.375 23.0596 25.375 23.75C25.375 24.4404 24.834 25 24.1667 25H4.83333C4.16599 25 3.625 24.4404 3.625 23.75Z" fill="white"/>
</g>
<defs>
<clipPath id="clip0_102_4302">
<rect width="29" height="30" fill="white"/>
</clipPath>
</defs>
</svg>
