<svg width="25" height="25" viewBox="0 0 25 25" fill="none" xmlns="http://www.w3.org/2000/svg">
<g clip-path="url(#clip0_102_5592)">
<path d="M12.4987 9.3776C11.6699 9.3776 10.875 9.70684 10.289 10.2929C9.70294 10.8789 9.3737 11.6738 9.3737 12.5026C9.3737 13.3314 9.70294 14.1263 10.289 14.7123C10.875 15.2984 11.6699 15.6276 12.4987 15.6276C13.3275 15.6276 14.1224 15.2984 14.7084 14.7123C15.2945 14.1263 15.6237 13.3314 15.6237 12.5026C15.6237 11.6738 15.2945 10.8789 14.7084 10.2929C14.1224 9.70684 13.3275 9.3776 12.4987 9.3776ZM12.4987 7.29427C13.88 7.29427 15.2048 7.843 16.1815 8.81976C17.1583 9.79651 17.707 11.1213 17.707 12.5026C17.707 13.8839 17.1583 15.2087 16.1815 16.1855C15.2048 17.1622 13.88 17.7109 12.4987 17.7109C11.1174 17.7109 9.7926 17.1622 8.81585 16.1855C7.8391 15.2087 7.29036 13.8839 7.29036 12.5026C7.29036 11.1213 7.8391 9.79651 8.81585 8.81976C9.7926 7.843 11.1174 7.29427 12.4987 7.29427ZM19.2695 7.03385C19.2695 7.37919 19.1323 7.71038 18.8882 7.95457C18.644 8.19875 18.3128 8.33594 17.9674 8.33594C17.6221 8.33594 17.2909 8.19875 17.0467 7.95457C16.8025 7.71038 16.6654 7.37919 16.6654 7.03385C16.6654 6.68852 16.8025 6.35733 17.0467 6.11314C17.2909 5.86895 17.6221 5.73177 17.9674 5.73177C18.3128 5.73177 18.644 5.86895 18.8882 6.11314C19.1323 6.35733 19.2695 6.68852 19.2695 7.03385ZM12.4987 4.16927C9.92161 4.16927 9.50078 4.17656 8.30182 4.22969C7.48516 4.26823 6.93724 4.3776 6.42891 4.57552C5.97682 4.75052 5.65078 4.9599 5.30391 5.30781C4.97787 5.62281 4.72719 6.00738 4.57057 6.43281C4.37266 6.94323 4.26328 7.4901 4.22578 8.30573C4.17161 9.45573 4.16536 9.85781 4.16536 12.5026C4.16536 15.0797 4.17266 15.5005 4.22578 16.6995C4.26432 17.5151 4.3737 18.0641 4.57057 18.5714C4.74766 19.0245 4.95599 19.3505 5.30182 19.6964C5.65286 20.0464 5.97891 20.2557 6.42682 20.4286C6.94141 20.6276 7.48932 20.738 8.30182 20.7755C9.45182 20.8297 9.85391 20.8359 12.4987 20.8359C15.0758 20.8359 15.4966 20.8286 16.6956 20.7755C17.5102 20.737 18.0591 20.6276 18.5674 20.4307C19.0185 20.2547 19.3466 20.0453 19.6924 19.6995C20.0435 19.3484 20.2529 19.0224 20.4258 18.5745C20.6237 18.0609 20.7341 17.512 20.7716 16.6995C20.8258 15.5495 20.832 15.1474 20.832 12.5026C20.832 9.92552 20.8247 9.50469 20.7716 8.30573C20.7331 7.49115 20.6237 6.94115 20.4258 6.43281C20.2688 6.00781 20.0186 5.6234 19.6935 5.30781C19.3786 4.98161 18.994 4.7309 18.5685 4.57448C18.0581 4.37656 17.5102 4.26719 16.6956 4.22969C15.5456 4.17552 15.1435 4.16927 12.4987 4.16927ZM12.4987 2.08594C15.3289 2.08594 15.682 2.09635 16.7924 2.14844C17.9018 2.20052 18.657 2.37448 19.3216 2.63281C20.0091 2.8974 20.5883 3.25573 21.1674 3.83385C21.6971 4.35458 22.107 4.98447 22.3685 5.67969C22.6258 6.34323 22.8008 7.09948 22.8529 8.20885C22.9018 9.31927 22.9154 9.6724 22.9154 12.5026C22.9154 15.3328 22.9049 15.6859 22.8529 16.7964C22.8008 17.9057 22.6258 18.6609 22.3685 19.3255C22.1077 20.0211 21.6978 20.6512 21.1674 21.1714C20.6466 21.7009 20.0167 22.1107 19.3216 22.3724C18.6581 22.6297 17.9018 22.8047 16.7924 22.8568C15.682 22.9057 15.3289 22.9193 12.4987 22.9193C9.66849 22.9193 9.31536 22.9089 8.20495 22.8568C7.09557 22.8047 6.34036 22.6297 5.67578 22.3724C4.98029 22.1114 4.35029 21.7015 3.82995 21.1714C3.30016 20.6507 2.89029 20.0208 2.62891 19.3255C2.37057 18.662 2.19661 17.9057 2.14453 16.7964C2.09557 15.6859 2.08203 15.3328 2.08203 12.5026C2.08203 9.6724 2.09245 9.31927 2.14453 8.20885C2.19661 7.09844 2.37057 6.34427 2.62891 5.67969C2.88957 4.98404 3.29953 4.35398 3.82995 3.83385C4.35044 3.30389 4.98039 2.89399 5.67578 2.63281C6.34036 2.37448 7.09453 2.20052 8.20495 2.14844C9.31536 2.09948 9.66849 2.08594 12.4987 2.08594Z" fill="#C0C2D7"/>
</g>
<defs>
<clipPath id="clip0_102_5592">
<rect width="25" height="25" fill="white"/>
</clipPath>
</defs>
</svg>
