<svg width="183" height="24" viewBox="0 0 183 24" fill="none" xmlns="http://www.w3.org/2000/svg">
<path d="M26.6087 11.6976V18.6306C26.6087 21.5808 24.1399 23.9705 21.0919 23.9705H11.0946C9.84493 23.9705 8.86958 22.9969 8.86958 21.8168C8.86958 20.6073 9.87541 19.6632 11.0946 19.6632H19.9032C21.1529 19.6632 22.1282 18.6896 22.1282 17.5095V11.5796C22.1282 10.9011 21.793 10.252 21.2443 9.83897L15.2093 5.44315C14.0816 4.61709 12.4967 4.61709 11.3689 5.44315L5.42538 9.77997C4.81578 10.2225 4.45003 10.9306 4.45003 11.6976V21.8463C4.45003 23.0559 3.4442 24 2.22501 24C0.975348 24 0 23.0264 0 21.8463V11.9041C0 9.66195 1.09727 7.56731 2.92605 6.23971L4.48051 5.11862L9.60109 1.40136L10.1497 1.01782C12.0395 -0.339275 14.6302 -0.339275 16.52 1.01782L17.0686 1.40136L22.1892 5.14813L23.8656 6.38722C25.5724 7.59681 26.6087 9.60295 26.6087 11.6976Z" fill="#F4683F"/>
<path d="M13.3188 18.0111C12.0691 18.0111 11.0328 17.008 11.0328 15.7984V13.1432C11.0328 11.9337 12.0691 10.9306 13.3188 10.9306C14.5685 10.9306 15.6048 11.9337 15.6048 13.1432V15.7984C15.6048 17.0375 14.5685 18.0111 13.3188 18.0111Z" fill="#333333"/>
<path d="M149.99 19.3682C150.882 19.3682 151.606 18.6681 151.606 17.8046C151.606 16.941 150.882 16.241 149.99 16.241C149.098 16.241 148.375 16.941 148.375 17.8046C148.375 18.6681 149.098 19.3682 149.99 19.3682Z" fill="#333333"/>
<path fill-rule="evenodd" clip-rule="evenodd" d="M122.893 14.5003V6.38724C122.893 5.41367 123.716 4.61711 124.722 4.61711C125.24 4.61711 125.697 4.82362 126.033 5.14815C126.368 5.47267 126.581 5.91521 126.581 6.41674V11.1371V13.2907V13.8808C126.673 15.9164 127.861 16.8015 129.294 16.8015C130.726 16.8015 131.885 15.9459 132.007 13.9693V13.2022V11.1371V6.41674C132.007 5.44317 132.829 4.64662 133.835 4.64662C134.353 4.64662 134.811 4.85313 135.146 5.17765C135.481 5.50217 135.695 5.9447 135.695 6.44624V14.5593V14.7954C135.695 17.185 132.829 19.4272 129.294 19.4272C125.85 19.4272 123.015 17.2735 122.924 14.9429L122.893 14.5003ZM119.998 4.91213H109.939C109.269 4.91213 108.72 5.44317 108.72 6.09222C108.72 6.74127 109.269 7.27231 109.939 7.27231H113.14V17.5686C113.14 18.5421 113.963 19.3387 114.968 19.3387C115.974 19.3387 116.797 18.5421 116.797 17.5686V7.27231H119.998C120.668 7.27231 121.217 6.74127 121.217 6.09222C121.217 5.44317 120.668 4.91213 119.998 4.91213ZM148.344 4.91213H138.285C137.615 4.91213 137.066 5.44317 137.066 6.09222C137.066 6.74127 137.615 7.27231 138.285 7.27231H141.486V17.5686C141.486 18.5421 142.309 19.3387 143.314 19.3387C144.32 19.3387 145.143 18.5421 145.143 17.5686V7.27231H148.344C149.014 7.27231 149.563 6.74127 149.563 6.09222C149.563 5.44317 149.014 4.91213 148.344 4.91213ZM167.332 8.42289C167.332 10.0455 166.052 11.4026 164.315 11.8156C167.546 12.3467 167.363 15.1199 167.332 15.1199V17.5686C167.332 18.5421 166.509 19.3387 165.504 19.3387C164.498 19.3387 163.675 18.5421 163.675 17.5686V15.1199C163.675 15.1199 163.888 13.1432 161.176 13.1432H158.859V17.5686C158.859 18.5421 158.036 19.3387 157.03 19.3387C156.024 19.3387 155.202 18.5421 155.202 17.5686V6.68226C155.202 5.70869 156.024 4.91213 157.03 4.91213H163.279C163.614 4.91213 163.98 4.94163 164.315 5.03014C166.052 5.44317 167.332 6.80027 167.332 8.42289ZM158.859 11.1076H160.688H161.755C162.882 11.1076 163.858 10.3405 163.98 9.24894V9.04243C163.98 8.89492 163.98 8.77692 163.949 8.62941C163.736 7.62633 162.791 6.94778 161.755 6.94778H159.56H158.859V11.1076ZM170.198 6.38724V14.5003L170.228 14.9429C170.32 17.2735 173.154 19.4272 176.599 19.4272C180.134 19.4272 182.999 17.185 182.999 14.7954V14.5593V6.44624C182.999 5.9447 182.786 5.50217 182.451 5.17765C182.115 4.85313 181.658 4.64662 181.14 4.64662C180.134 4.64662 179.311 5.44317 179.311 6.41674V11.1371V13.2022V13.9693C179.189 15.9459 178.031 16.8015 176.599 16.8015C175.166 16.8015 173.977 15.9164 173.886 13.8808V13.2907V11.1371V6.41674C173.886 5.91521 173.673 5.47267 173.337 5.14815C173.002 4.82362 172.545 4.61711 172.027 4.61711C171.021 4.61711 170.198 5.41367 170.198 6.38724Z" fill="#F4683F"/>
<path fill-rule="evenodd" clip-rule="evenodd" d="M61.9341 7.33128C61.0806 6.1512 59.77 5.26614 58.246 4.91211C57.5755 4.7056 56.6306 4.58759 55.6248 4.58759C54.6189 4.58759 53.7046 4.7056 53.0035 4.91211C51.4795 5.26614 50.1994 6.1512 49.3155 7.33128C48.584 8.30485 48.1877 9.51445 48.1877 10.842V13.1137C48.1877 14.4118 48.6144 15.6214 49.3155 16.6245C50.1384 17.775 51.3576 18.6011 52.7902 18.9846C53.4912 19.2207 54.497 19.3977 55.6248 19.3977C56.7525 19.3977 57.7583 19.2502 58.4594 18.9846C59.8919 18.6011 61.1111 17.7455 61.9341 16.6245C62.6656 15.6214 63.0923 14.4413 63.0923 13.1137V10.842C63.0923 9.51445 62.6656 8.30485 61.9341 7.33128ZM59.1299 10.5765V13.3202C59.1299 14.2053 58.7947 15.0314 58.2765 15.6804L58.0936 15.8574C56.783 17.244 54.497 17.244 53.1864 15.8574L53.0035 15.6804C52.4549 15.0314 52.1501 14.2053 52.1501 13.3202V10.5765C52.1501 9.69145 52.4854 8.86539 53.0035 8.21635C53.0035 8.21635 53.0035 8.18685 53.034 8.18685C54.3751 6.59374 56.9049 6.59374 58.246 8.18685C58.246 8.18685 58.246 8.21635 58.2765 8.21635C58.7947 8.86539 59.1299 9.69145 59.1299 10.5765ZM32.6735 6.56421V17.6865C32.6735 18.6011 33.4355 19.3386 34.3803 19.3386H40.1105C43.5852 19.3386 46.4198 16.6244 46.4198 13.2317V10.96C46.4198 7.59678 43.6157 4.85308 40.1105 4.85308H34.3803C33.4355 4.91208 32.6735 5.64964 32.6735 6.56421ZM38.5256 17.2735H36.331V6.97723H38.5256C40.6896 6.97723 42.427 8.65885 42.427 10.7535V13.4972C42.427 15.5919 40.6896 17.2735 38.5256 17.2735ZM89.3353 19.3387C88.3294 19.3387 87.5065 18.5421 87.5065 17.5686V6.68227C87.5065 5.7087 88.3294 4.91214 89.3353 4.91214C90.3411 4.91214 91.164 5.7087 91.164 6.68227V17.5686C91.164 18.5716 90.3411 19.3387 89.3353 19.3387ZM102.046 11.8746L106.313 16.9195C106.831 17.5686 106.8 18.4831 106.16 19.0142C105.52 19.5452 104.545 19.4567 103.996 18.8077L99.6072 13.6153L98.5708 12.4352V17.5686C98.5708 18.5421 97.7479 19.3387 96.7421 19.3387C95.7362 19.3387 94.9133 18.5421 94.9133 17.5686V6.68227C94.9133 5.7087 95.7362 4.91214 96.7421 4.91214C97.7479 4.91214 98.5708 5.7087 98.5708 6.68227V11.3436L99.3328 10.429L103.387 5.47268C103.905 4.82363 104.88 4.73513 105.551 5.23666C106.221 5.7382 106.313 6.68226 105.795 7.33131L102.046 11.8746ZM83.8489 6.91828V7.03629V7.2133V18.0111C83.8489 18.7486 83.2393 19.3387 82.4773 19.3387C81.7153 19.3387 81.1057 18.7486 81.1057 18.0111V8.98343V8.00986L80.7705 8.80642L80.74 8.86543L76.8996 17.3325C76.8996 17.362 76.8691 17.4211 76.8386 17.4506C76.5338 18.1586 75.7413 18.6601 74.8574 18.6011C74.1869 18.5716 73.5773 18.2176 73.242 17.7161L73.242 17.716C73.1505 17.598 73.0591 17.48 72.9982 17.3325L69.1577 8.86543L69.1272 8.80642L68.792 8.00986V8.98343V18.0111C68.792 18.7486 68.1824 19.3387 67.4204 19.3387C66.6584 19.3387 66.0488 18.7486 66.0488 18.0111V7.2133C66.0488 7.16458 66.058 7.1248 66.0663 7.08904C66.0731 7.05984 66.0793 7.03332 66.0793 7.00679C66.0488 6.97729 66.0488 6.94778 66.0488 6.91828C65.9878 5.88571 67.0546 5.00064 68.4262 4.91214H68.4567H68.7005H68.8224H68.9139C69.4016 4.94164 69.8283 5.08915 70.194 5.29566C70.6207 5.53168 70.8951 5.8267 71.1084 6.21023V6.23974C71.1084 6.25449 71.116 6.26924 71.1237 6.28399C71.1313 6.29874 71.1389 6.31349 71.1389 6.32824L74.8574 14.7954L74.9489 14.9724L75.0403 14.7954L78.7588 6.32824C78.7588 6.29874 78.7588 6.26924 78.7893 6.23974V6.21023C79.0026 5.8267 79.277 5.50218 79.7037 5.29566C80.0694 5.08915 80.4962 4.94164 80.9838 4.91214H81.0753H81.1972H81.441H81.4715C82.8431 5.00064 83.9099 5.88571 83.8489 6.91828Z" fill="#333333"/>
</svg>
