<svg width="183" height="24" viewBox="0 0 183 24" fill="none" xmlns="http://www.w3.org/2000/svg">
<path d="M26.6087 11.6976V18.6306C26.6087 21.5808 24.1399 23.9705 21.0919 23.9705H11.0946C9.84493 23.9705 8.86958 22.9969 8.86958 21.8168C8.86958 20.6073 9.87541 19.6632 11.0946 19.6632H19.9032C21.1529 19.6632 22.1282 18.6896 22.1282 17.5095V11.5796C22.1282 10.9011 21.793 10.252 21.2443 9.83897L15.2093 5.44315C14.0816 4.61709 12.4967 4.61709 11.3689 5.44315L5.42538 9.77997C4.81578 10.2225 4.45003 10.9306 4.45003 11.6976V21.8463C4.45003 23.0559 3.4442 24 2.22501 24C0.975348 24 0 23.0264 0 21.8463V11.9041C0 9.66195 1.09727 7.56731 2.92605 6.23971L4.48051 5.11862L9.60109 1.40136L10.1497 1.01782C12.0395 -0.339275 14.6302 -0.339275 16.52 1.01782L17.0686 1.40136L22.1892 5.14813L23.8656 6.38722C25.5724 7.59681 26.6087 9.60295 26.6087 11.6976Z" fill="#F4683F"/>
<path d="M13.3172 18.0102C12.0676 18.0102 11.0312 17.0071 11.0312 15.7975V13.1423C11.0312 11.9328 12.0676 10.9297 13.3172 10.9297C14.5669 10.9297 15.6032 11.9328 15.6032 13.1423V15.7975C15.6032 17.0366 14.5669 18.0102 13.3172 18.0102Z" fill="white"/>
<path d="M149.99 19.3694C150.883 19.3694 151.606 18.6694 151.606 17.8058C151.606 16.9422 150.883 16.2422 149.99 16.2422C149.098 16.2422 148.375 16.9422 148.375 17.8058C148.375 18.6694 149.098 19.3694 149.99 19.3694Z" fill="white"/>
<path fill-rule="evenodd" clip-rule="evenodd" d="M122.892 14.5004V6.38732C122.892 5.41375 123.715 4.61719 124.721 4.61719C125.239 4.61719 125.696 4.8237 126.031 5.14822C126.366 5.47275 126.58 5.91528 126.58 6.41682V11.1372V13.2908V13.8809C126.671 15.9165 127.86 16.8016 129.293 16.8016C130.725 16.8016 131.883 15.946 132.005 13.9694V13.2023V11.1372V6.41682C132.005 5.44325 132.828 4.64669 133.834 4.64669C134.352 4.64669 134.809 4.8532 135.145 5.17773C135.48 5.50225 135.693 5.94478 135.693 6.44632V14.5594V14.7954C135.693 17.1851 132.828 19.4273 129.293 19.4273C125.848 19.4273 123.014 17.2736 122.922 14.9429L122.892 14.5004ZM119.996 4.91221H109.938C109.267 4.91221 108.719 5.44325 108.719 6.0923C108.719 6.74134 109.267 7.27238 109.938 7.27238H113.138V17.5686C113.138 18.5422 113.961 19.3388 114.967 19.3388C115.973 19.3388 116.796 18.5422 116.796 17.5686V7.27238H119.996C120.667 7.27238 121.215 6.74134 121.215 6.0923C121.215 5.44325 120.667 4.91221 119.996 4.91221ZM148.342 4.91221H138.284C137.613 4.91221 137.065 5.44325 137.065 6.0923C137.065 6.74134 137.613 7.27238 138.284 7.27238H141.484V17.5686C141.484 18.5422 142.307 19.3388 143.313 19.3388C144.319 19.3388 145.142 18.5422 145.142 17.5686V7.27238H148.342C149.013 7.27238 149.561 6.74134 149.561 6.0923C149.561 5.44325 149.013 4.91221 148.342 4.91221ZM167.331 8.42296C167.331 10.0456 166.051 11.4027 164.314 11.8157C167.544 12.3468 167.362 15.12 167.331 15.12V17.5686C167.331 18.5422 166.508 19.3388 165.502 19.3388C164.497 19.3388 163.674 18.5422 163.674 17.5686V15.12C163.674 15.12 163.887 13.1433 161.174 13.1433H158.858V17.5686C158.858 18.5422 158.035 19.3388 157.029 19.3388C156.023 19.3388 155.2 18.5422 155.2 17.5686V6.68234C155.2 5.70877 156.023 4.91221 157.029 4.91221H163.277C163.613 4.91221 163.978 4.94171 164.314 5.03022C166.051 5.44325 167.331 6.80035 167.331 8.42296ZM158.858 11.1077H160.687H161.753C162.881 11.1077 163.856 10.3406 163.978 9.24902V9.04251C163.978 8.895 163.978 8.77699 163.948 8.62948C163.735 7.62641 162.79 6.94786 161.753 6.94786H159.559H158.858V11.1077ZM170.197 6.38732V14.5004L170.227 14.9429C170.318 17.2736 173.153 19.4273 176.597 19.4273C180.133 19.4273 182.998 17.1851 182.998 14.7954V14.5594V6.44632C182.998 5.94478 182.785 5.50225 182.449 5.17773C182.114 4.8532 181.657 4.64669 181.139 4.64669C180.133 4.64669 179.31 5.44325 179.31 6.41682V11.1372V13.2023V13.9694C179.188 15.946 178.03 16.8016 176.597 16.8016C175.165 16.8016 173.976 15.9165 173.885 13.8809V13.2908V11.1372V6.41682C173.885 5.91528 173.671 5.47275 173.336 5.14822C173.001 4.8237 172.544 4.61719 172.025 4.61719C171.02 4.61719 170.197 5.41375 170.197 6.38732Z" fill="#F4683F"/>
<path fill-rule="evenodd" clip-rule="evenodd" d="M61.9325 7.32963C61.079 6.14955 59.7684 5.26449 58.2444 4.91046C57.5739 4.70395 56.629 4.58594 55.6232 4.58594C54.6173 4.58594 53.703 4.70395 53.0019 4.91046C51.478 5.26449 50.1978 6.14955 49.3139 7.32963C48.5824 8.30321 48.1861 9.5128 48.1861 10.8404V13.1121C48.1861 14.4102 48.6129 15.6197 49.3139 16.6228C50.1368 17.7734 51.356 18.5995 52.7886 18.983C53.4896 19.219 54.4954 19.396 55.6232 19.396C56.7509 19.396 57.7568 19.2485 58.4578 18.983C59.8903 18.5995 61.1095 17.7439 61.9325 16.6228C62.664 15.6197 63.0907 14.4397 63.0907 13.1121V10.8404C63.0907 9.5128 62.664 8.30321 61.9325 7.32963ZM59.1283 10.5749V13.3186C59.1283 14.2036 58.7931 15.0297 58.2749 15.6788L58.092 15.8558C56.7814 17.2424 54.4954 17.2424 53.1848 15.8558L53.0019 15.6788C52.4533 15.0297 52.1485 14.2036 52.1485 13.3186V10.5749C52.1485 9.68981 52.4838 8.86375 53.0019 8.2147C53.0019 8.2147 53.0019 8.1852 53.0324 8.1852C54.3735 6.59209 56.9033 6.59209 58.2444 8.1852C58.2444 8.1852 58.2444 8.2147 58.2749 8.2147C58.7931 8.86375 59.1283 9.68981 59.1283 10.5749ZM32.6719 6.56256V17.6849C32.6719 18.5994 33.4339 19.337 34.3787 19.337H40.1089C43.5836 19.337 46.4182 16.6228 46.4182 13.23V10.9584C46.4182 7.59513 43.6141 4.85143 40.1089 4.85143H34.3787C33.4339 4.91043 32.6719 5.64799 32.6719 6.56256ZM38.524 17.2718H36.3294V6.97559H38.524C40.688 6.97559 42.4254 8.65721 42.4254 10.7519V13.4956C42.4254 15.5902 40.688 17.2718 38.524 17.2718ZM89.3337 19.337C88.3279 19.337 87.5049 18.5405 87.5049 17.5669V6.68062C87.5049 5.70705 88.3279 4.91049 89.3337 4.91049C90.3395 4.91049 91.1625 5.70705 91.1625 6.68062V17.5669C91.1625 18.57 90.3395 19.337 89.3337 19.337ZM102.044 11.873L106.311 16.9179C106.829 17.5669 106.799 18.4815 106.159 19.0125C105.519 19.5436 104.543 19.4551 103.995 18.806L99.6056 13.6136L98.5693 12.4335V17.5669C98.5693 18.5405 97.7463 19.337 96.7405 19.337C95.7347 19.337 94.9117 18.5405 94.9117 17.5669V6.68062C94.9117 5.70705 95.7347 4.91049 96.7405 4.91049C97.7463 4.91049 98.5693 5.70705 98.5693 6.68062V11.342L99.3312 10.4274L103.385 5.47103C103.903 4.82198 104.879 4.73348 105.549 5.23502C106.22 5.73655 106.311 6.68061 105.793 7.32966L102.044 11.873ZM83.8473 6.91663V7.03464V7.21165V18.0094C83.8473 18.747 83.2377 19.337 82.4757 19.337C81.7137 19.337 81.1042 18.747 81.1042 18.0094V8.98178V8.00822L80.7689 8.80477L80.7384 8.86378L76.898 17.3309C76.898 17.3604 76.8675 17.4194 76.837 17.4489C76.5322 18.157 75.7397 18.6585 74.8558 18.5995C74.1853 18.57 73.5757 18.216 73.2404 17.7144L73.2404 17.7144C73.1489 17.5964 73.0575 17.4784 72.9966 17.3309L69.1561 8.86378L69.1257 8.80477L68.7904 8.00822V8.98178V18.0094C68.7904 18.747 68.1808 19.337 67.4188 19.337C66.6568 19.337 66.0472 18.747 66.0472 18.0094V7.21165C66.0472 7.16293 66.0564 7.12315 66.0648 7.08739C66.0715 7.05819 66.0777 7.03167 66.0777 7.00514C66.0472 6.97564 66.0472 6.94614 66.0472 6.91663C65.9863 5.88406 67.053 4.999 68.4246 4.91049H68.4551H68.6989H68.8209H68.9123C69.4 4.93999 69.8267 5.0875 70.1924 5.29401C70.6192 5.53003 70.8935 5.82506 71.1068 6.20858V6.23809C71.1068 6.25284 71.1145 6.26759 71.1221 6.28234C71.1297 6.29709 71.1373 6.31184 71.1373 6.32659L74.8558 14.7937L74.9473 14.9707L75.0387 14.7937L78.7572 6.32659C78.7572 6.29709 78.7572 6.26759 78.7877 6.23809V6.20858C79.0011 5.82506 79.2754 5.50053 79.7021 5.29401C80.0678 5.0875 80.4946 4.93999 80.9822 4.91049H81.0737H81.1956H81.4394H81.4699C82.8415 4.999 83.9083 5.88406 83.8473 6.91663Z" fill="white"/>
</svg>
